Inmates at a high-security prison in Rome prepare for a public performance of Shakespeare's "Julius Caesar."
From IMDb

Paolo Taviani, Vittorio Taviani
 
http://www.imdb.com/title/tt2177511/

General 
Unique ID : 257955580900455480465660994061616516916 (0xC2107010E526D9BCB733667D10EF8F34) 
Complete name : Caesar.Must.Die.2012.DVDRip.x264.mkv 
Format : Matroska 
Format version : Version 2 
File size : 1.26 GiB 
Duration : 1h 13mn 
Overall bit rate : 2 452 Kbps 
Writing application : HandBrake 0.9.8 
Writing library : libmkv 0.6.5 
Video 
ID : 1 
Format : AVC 
Format/Info : Advanced Video Codec 
Format profile : High@L3.1 
Format settings, CABAC : Yes 
Format settings, ReFrames : 11 frames 
Codec ID : V_MPEG4/ISO/AVC 
Duration : 1h 13mn 
Bit rate : 1 956 Kbps 
Width : 716 pixels 
Height : 550 pixels 
Display aspect ratio : 1.85:1 
Original display aspect ratio : 1.85:1 
Frame rate : 25.000 fps 
Color space : YUV 
Chroma subsampling : 4:2:0 
Bit depth : 8 bits 
Scan type : Progressive 
Bits/(Pixel*Frame) : 0.199 
Stream size : 1.00 GiB (80%) 
Writing library : x264 core 120 
Encoding settings : cabac=1 / ref=11 / deblock=1:-3:-3 / analyse=0x3:0x133 / me=umh / subme=11 / psy=1 / psy_rd=1.00:0.05 / mixed_ref=1 / me_range=32 / chroma_me=1 / trellis=2 / 8x8dct=1 / cqm=0 / deadzone=21,11 / fast_pskip=0 / chroma_qp_offset=-3 / threads=4 / sliced_threads=0 / nr=0 / decimate=1 / interlaced=0 / bluray_compat=0 / constrained_intra=0 / bframes=11 / b_pyramid=2 / b_adapt=2 / b_bias=0 / direct=3 / weightb=1 / open_gop=0 / weightp=2 / keyint=250 / keyint_min=25 / scenecut=40 / intra_refresh=0 / rc_lookahead=60 / rc=crf / mbtree=1 / crf=15.0 / qcomp=0.60 / qpmin=3 / qpmax=69 / qpstep=4 / ip_ratio=1.40 / aq=2:1.20 
Language : English 
Default : Yes 
Forced : No 
Color primaries : BT.601-6 525, BT.1358 525, BT.1700 NTSC, SMPTE 170M 
Transfer characteristics : BT.709-5, BT.1361 
Matrix coefficients : BT.601-6 525, BT.1358 525, BT.1700 NTSC, SMPTE 170M 
Audio 
ID : 2 
Format : AC-3 
Format/Info : Audio Coding 3 
Mode extension : CM (complete main) 
Format settings, Endianness : Big 
Codec ID : A_AC3 
Duration : 1h 13mn 
Bit rate mode : Constant 
Bit rate : 448 Kbps 
Channel(s) : 6 channels 
Channel positions : Front: L C R, Side: L R, LFE 
Sampling rate : 48.0 KHz 
Bit depth : 16 bits 
Compression mode : Lossy 
Stream size : 236 MiB (18%) 
Language : Italian 
Default : Yes 
Forced : No 
Text #1 
ID : 3 
Format : VobSub 
Codec ID : S_VOBSUB 
Codec ID/Info : The same subtitle format used on DVDs 
Language : Italian 
Default : No 
Forced : No 
Text #2 
ID : 4 
Format : VobSub 
Codec ID : S_VOBSUB 
Codec ID/Info : The same subtitle format used on DVDs 
Language : English 
Default : No 
Forced : No 
Menu 
00:00:00.000 : Chapter 1 
00:04:16.840 : Chapter 2 
00:06:11.080 : Chapter 3 
00:13:50.920 : Chapter 4 
00:18:28.840 : Chapter 5 
00:21:50.920 : Chapter 6 
00:25:11.080 : Chapter 7 
00:31:56.200 : Chapter 8 
00:37:28.840 : Chapter 9 
00:39:20.200 : Chapter 10 
00:44:10.120 : Chapter 11 
00:47:09.160 : Chapter 12 
00:50:17.800 : Chapter 13 
00:54:07.240 : Chapter 14 
00:59:26.920 : Chapter 15 
01:06:27.880 : Chapter 16 

LANGUAGE: Italian
SUBS: English, Italian

My Rip.